<?xml version="1.0" encoding="iso-8859-1"?>
<!-- Generator: Adobe Illustrator 19.0.0, SVG Export Plug-In . SVG Version: 6.00 Build 0)  -->
<svg version="1.1" id="Capa_1" xmlns="http://www.w3.org/2000/svg" xmlns:xlink="http://www.w3.org/1999/xlink" x="0px" y="0px"
	 viewBox="0 0 512 512" style="enable-background:new 0 0 512 512;" xml:space="preserve">
<linearGradient id="SVGID_1_" gradientUnits="userSpaceOnUse" x1="256.5957" y1="442.7285" x2="256.5957" y2="71.7285" gradientTransform="matrix(0.9981 0 0 -0.9981 -0.0955 512.7271)">
	<stop  offset="0" style="stop-color:#2AF598"/>
	<stop  offset="1" style="stop-color:#009EFD"/>
</linearGradient>
<path style="fill:url(#SVGID_1_);" d="M405.209,441.138c-0.217,0-0.433-0.003-0.649-0.007l-282.365,0.003
	c-0.115,0.002-0.272,0.004-0.432,0.004C54.622,441.138,0,386.516,0,319.376c0-30.807,11.531-60.205,32.47-82.78
	c17.139-18.478,39.292-31.031,63.563-36.25c6.793-33.574,24.141-64.22,49.814-87.53c29.794-27.054,68.382-41.954,108.657-41.954
	c87.668,0,159.262,70.14,161.623,157.248C469.905,233.594,512,279.146,512,334.347C512,393.232,464.094,441.138,405.209,441.138z
	 M404.677,401.209l0.601,0.007h-0.069c36.872,0,66.869-29.997,66.869-66.869s-29.997-66.869-66.869-66.869h-28.943v-34.932
	c0-67.14-54.622-121.762-121.762-121.762c-62.663,0-114.732,46.929-121.117,109.161l-1.697,16.534l-16.568,1.326
	c-42.168,3.375-75.199,39.206-75.199,81.572c0,45.089,36.652,81.778,81.726,81.84l0.38-0.004L404.677,401.209z"/>
<g>
</g>
<g>
</g>
<g>
</g>
<g>
</g>
<g>
</g>
<g>
</g>
<g>
</g>
<g>
</g>
<g>
</g>
<g>
</g>
<g>
</g>
<g>
</g>
<g>
</g>
<g>
</g>
<g>
</g>
</svg>
