<?xml version="1.0" encoding="iso-8859-1"?>
<!-- Generator: Adobe Illustrator 19.0.0, SVG Export Plug-In . SVG Version: 6.00 Build 0)  -->
<svg xmlns="http://www.w3.org/2000/svg" xmlns:xlink="http://www.w3.org/1999/xlink" version="1.1" id="Capa_1" x="0px" y="0px" viewBox="0 0 512 512" style="enable-background:new 0 0 512 512;" xml:space="preserve" width="512px" height="512px">
<g>
	<g>
		<path d="M458.667,0H53.333C23.893,0.035,0.035,23.893,0,53.333v405.333C0.035,488.107,23.893,511.965,53.333,512H96v-21.333    H53.333c-17.673,0-32-14.327-32-32V53.333c0-17.673,14.327-32,32-32h405.333c17.673,0,32,14.327,32,32v405.333    c0,17.673-14.327,32-32,32H416V512h42.667c29.441-0.035,53.298-23.893,53.333-53.333V53.333    C511.965,23.893,488.107,0.035,458.667,0z" fill="#FFFFFF"/>
	</g>
</g>
<g>
	<g>
		<rect x="42.667" y="85.333" width="85.333" height="21.333" fill="#FFFFFF"/>
	</g>
</g>
<g>
	<g>
		<rect x="53.333" y="42.667" width="21.333" height="21.333" fill="#FFFFFF"/>
	</g>
</g>
<g>
	<g>
		<rect x="96" y="42.667" width="21.333" height="21.333" fill="#FFFFFF"/>
	</g>
</g>
<g>
	<g>
		<rect x="437.333" y="42.667" width="21.333" height="21.333" fill="#FFFFFF"/>
	</g>
</g>
<g>
	<g>
		<path d="M320,85.333H192c-29.441,0.035-53.298,23.893-53.333,53.333v96c0.028,25.336,17.849,47.167,42.667,52.267V320    c0,5.891,4.776,10.667,10.667,10.667h128c5.891,0,10.667-4.776,10.667-10.667v-33.067c24.817-5.1,42.639-26.931,42.667-52.267v-96    C373.298,109.226,349.441,85.369,320,85.333z M352,234.667c0,17.673-14.327,32-32,32c-5.891,0-10.667,4.776-10.667,10.667v32    H202.667v-32c0-5.891-4.776-10.667-10.667-10.667c-17.673,0-32-14.327-32-32v-96c0-17.673,14.327-32,32-32h128    c17.673,0,32,14.327,32,32V234.667z" fill="#FFFFFF"/>
	</g>
</g>
<g>
	<g>
		<path d="M213.333,138.667c-17.673,0-32,14.327-32,32c0,17.673,14.327,32,32,32c17.673,0,32-14.327,32-32    C245.333,152.994,231.006,138.667,213.333,138.667z M213.333,181.333c-5.891,0-10.667-4.776-10.667-10.667    c0-5.891,4.776-10.667,10.667-10.667c5.891,0,10.667,4.776,10.667,10.667C224,176.558,219.224,181.333,213.333,181.333z" fill="#FFFFFF"/>
	</g>
</g>
<g>
	<g>
		<path d="M298.667,138.667c-17.673,0-32,14.327-32,32c0,17.673,14.327,32,32,32c17.673,0,32-14.327,32-32    C330.667,152.994,316.34,138.667,298.667,138.667z M298.667,181.333c-5.891,0-10.667-4.776-10.667-10.667    c0-5.891,4.776-10.667,10.667-10.667c5.891,0,10.667,4.776,10.667,10.667C309.333,176.558,304.558,181.333,298.667,181.333z" fill="#FFFFFF"/>
	</g>
</g>
<g>
	<g>
		<rect x="224" y="266.667" width="21.333" height="53.333" fill="#FFFFFF"/>
	</g>
</g>
<g>
	<g>
		<rect x="266.667" y="266.667" width="21.333" height="53.333" fill="#FFFFFF"/>
	</g>
</g>
<g>
	<g>
		<rect x="245.333" y="213.333" width="21.333" height="21.333" fill="#FFFFFF"/>
	</g>
</g>
<g>
	<g>
		<path d="M245.333,362.667v32H160c-0.295-0.006-0.589-0.006-0.884,0c-11.538,0.244-20.693,9.795-20.449,21.333v42.667H160V416    h85.333c0.295,0.006,0.589,0.006,0.884,0c11.538-0.244,20.693-9.795,20.449-21.333v-32H245.333z" fill="#FFFFFF"/>
	</g>
</g>
<g>
	<g>
		<path d="M352,394.667h-64V416h64v42.667h21.333V416c0.006-0.295,0.006-0.589,0-0.884C373.089,403.578,363.538,394.423,352,394.667    z" fill="#FFFFFF"/>
	</g>
</g>
<g>
	<g>
		<path d="M149.333,448c-17.673,0-32,14.327-32,32s14.327,32,32,32c17.673,0,32-14.327,32-32S167.006,448,149.333,448z     M149.333,490.667c-5.891,0-10.667-4.776-10.667-10.667c0-5.891,4.776-10.667,10.667-10.667c5.891,0,10.667,4.776,10.667,10.667    C160,485.891,155.224,490.667,149.333,490.667z" fill="#FFFFFF"/>
	</g>
</g>
<g>
	<g>
		<path d="M256,448c-17.673,0-32,14.327-32,32s14.327,32,32,32s32-14.327,32-32S273.673,448,256,448z M256,490.667    c-5.891,0-10.667-4.776-10.667-10.667c0-5.891,4.776-10.667,10.667-10.667s10.667,4.776,10.667,10.667    C266.667,485.891,261.891,490.667,256,490.667z" fill="#FFFFFF"/>
	</g>
</g>
<g>
	<g>
		<path d="M362.667,448c-17.673,0-32,14.327-32,32s14.327,32,32,32s32-14.327,32-32S380.34,448,362.667,448z M362.667,490.667    c-5.891,0-10.667-4.776-10.667-10.667c0-5.891,4.776-10.667,10.667-10.667s10.667,4.776,10.667,10.667    C373.333,485.891,368.558,490.667,362.667,490.667z" fill="#FFFFFF"/>
	</g>
</g>
<g>
	<g>
		<rect x="245.333" y="426.667" width="21.333" height="32" fill="#FFFFFF"/>
	</g>
</g>
<g>
	<g>
		<rect x="384" y="85.333" width="74.667" height="21.333" fill="#FFFFFF"/>
	</g>
</g>
<g>
	<g>
		<rect x="192" y="352" width="21.333" height="21.333" fill="#FFFFFF"/>
	</g>
</g>
<g>
	<g>
		<rect x="138.667" y="352" width="21.333" height="21.333" fill="#FFFFFF"/>
	</g>
</g>
<g>
	<g>
		<rect x="85.333" y="352" width="21.333" height="21.333" fill="#FFFFFF"/>
	</g>
</g>
<g>
	<g>
		<rect x="405.333" y="352" width="21.333" height="21.333" fill="#FFFFFF"/>
	</g>
</g>
<g>
	<g>
		<rect x="352" y="352" width="21.333" height="21.333" fill="#FFFFFF"/>
	</g>
</g>
<g>
	<g>
		<rect x="298.667" y="352" width="21.333" height="21.333" fill="#FFFFFF"/>
	</g>
</g>
<g>
</g>
<g>
</g>
<g>
</g>
<g>
</g>
<g>
</g>
<g>
</g>
<g>
</g>
<g>
</g>
<g>
</g>
<g>
</g>
<g>
</g>
<g>
</g>
<g>
</g>
<g>
</g>
<g>
</g>
</svg>
