<?xml version="1.0" encoding="iso-8859-1"?>
<!-- Generator: Adobe Illustrator 19.0.0, SVG Export Plug-In . SVG Version: 6.00 Build 0)  -->
<svg version="1.1" id="Capa_1" xmlns="http://www.w3.org/2000/svg" xmlns:xlink="http://www.w3.org/1999/xlink" x="0px" y="0px"
	 viewBox="0 0 171.643 171.643" style="enable-background:new 0 0 171.643 171.643;" xml:space="preserve">
<g>
	<g>
		<path style="fill:#010002;" d="M85.829,103.651c-0.535,0-1.069-0.111-1.567-0.342L2.235,66.169
			C0.869,65.552-0.007,64.186,0,62.686c0.007-1.5,0.895-2.851,2.268-3.46l82.027-36.131c0.98-0.431,2.087-0.431,3.067,0
			l82.012,36.131c1.374,0.609,2.261,1.96,2.268,3.46c0.007,1.5-0.869,2.866-2.235,3.482L87.396,103.31
			C86.898,103.54,86.363,103.651,85.829,103.651z M13.124,62.753l72.705,32.924l72.69-32.924l-72.69-32.025L13.124,62.753z"/>
	</g>
	<g>
		<path style="fill:#010002;" d="M85.829,126.016c-0.535,0-1.069-0.111-1.567-0.342L2.235,88.526l3.133-6.92l80.46,36.436
			l80.442-36.436l3.141,6.92l-82.012,37.149C86.898,125.905,86.363,126.016,85.829,126.016z"/>
	</g>
	<g>
		<path style="fill:#010002;" d="M85.829,148.871c-0.535,0-1.069-0.111-1.567-0.342L2.235,111.381l3.133-6.92l80.46,36.436
			l80.442-36.436l3.141,6.92L87.399,148.53C86.898,148.76,86.363,148.871,85.829,148.871z"/>
	</g>
</g>
<g>
</g>
<g>
</g>
<g>
</g>
<g>
</g>
<g>
</g>
<g>
</g>
<g>
</g>
<g>
</g>
<g>
</g>
<g>
</g>
<g>
</g>
<g>
</g>
<g>
</g>
<g>
</g>
<g>
</g>
</svg>
