<?xml version="1.0" encoding="iso-8859-1"?>
<!-- Generator: Adobe Illustrator 19.0.0, SVG Export Plug-In . SVG Version: 6.00 Build 0)  -->
<svg version="1.1" id="Capa_1" xmlns="http://www.w3.org/2000/svg" xmlns:xlink="http://www.w3.org/1999/xlink" x="0px" y="0px"
	 viewBox="0 0 512 512" style="enable-background:new 0 0 512 512;" xml:space="preserve">
<g>
	<g>
		<path d="M319.968,0.127H192.032c-5.52,0-9.995,4.476-9.995,9.995v127.937c0,5.519,4.475,9.995,9.995,9.995h127.937
			c5.52,0,9.995-4.476,9.995-9.995V10.122C329.963,4.603,325.489,0.127,319.968,0.127z M309.973,128.063H202.027V20.117h107.946
			V128.063z"/>
	</g>
</g>
<g>
	<g>
		<path d="M502.005,0.127H374.068c-5.52,0-9.995,4.476-9.995,9.995v127.937c0,5.519,4.475,9.995,9.995,9.995h127.937
			c5.52,0,9.995-4.476,9.995-9.995V10.122C512,4.603,507.525,0.127,502.005,0.127z M492.01,128.063H384.063V20.117H492.01V128.063z"
			/>
	</g>
</g>
<g>
	<g>
		<path d="M137.932,182.037H9.995c-5.52,0-9.995,4.476-9.995,9.995v127.937c0,5.519,4.475,9.995,9.995,9.995h127.937
			c5.52,0,9.995-4.476,9.995-9.995V192.032C147.927,186.512,143.452,182.037,137.932,182.037z M127.937,309.973H19.99V202.027
			h107.946V309.973z"/>
	</g>
</g>
<g>
	<g>
		<path d="M319.968,182.037H192.032c-5.52,0-9.995,4.476-9.995,9.995v127.937c0,5.519,4.475,9.995,9.995,9.995h127.937
			c5.52,0,9.995-4.476,9.995-9.995V192.032C329.963,186.512,325.489,182.037,319.968,182.037z M309.973,309.973H202.027V202.027
			h107.946V309.973z"/>
	</g>
</g>
<g>
	<g>
		<path d="M502.005,182.037H374.068c-5.52,0-9.995,4.476-9.995,9.995v127.937c0,5.519,4.475,9.995,9.995,9.995h127.937
			c5.52,0,9.995-4.476,9.995-9.995V192.032C512,186.512,507.525,182.037,502.005,182.037z M492.01,309.973H384.063V202.027H492.01
			V309.973z"/>
	</g>
</g>
<g>
	<g>
		<path d="M137.932,363.946H9.995c-5.52,0-9.995,4.476-9.995,9.995v127.937c0,5.519,4.475,9.995,9.995,9.995h127.937
			c5.52,0,9.995-4.476,9.995-9.995V373.941C147.927,368.422,143.452,363.946,137.932,363.946z M127.937,491.883H19.99V383.937
			h107.946V491.883z"/>
	</g>
</g>
<g>
	<g>
		<path d="M319.968,363.946H192.032c-5.52,0-9.995,4.476-9.995,9.995v127.937c0,5.519,4.475,9.995,9.995,9.995h127.937
			c5.52,0,9.995-4.476,9.995-9.995V373.941C329.963,368.422,325.489,363.946,319.968,363.946z M309.973,491.883H202.027V383.937
			h107.946V491.883z"/>
	</g>
</g>
<g>
	<g>
		<path d="M448.517,366.875c-1.859-1.86-4.438-2.929-7.066-2.929c-2.639,0-5.207,1.07-7.067,2.929
			c-1.869,1.859-2.929,4.438-2.929,7.066c0,2.629,1.06,5.207,2.929,7.065c1.859,1.86,4.428,2.93,7.067,2.93
			c2.629,0,5.207-1.069,7.066-2.93c1.859-1.858,2.929-4.437,2.929-7.065C451.446,371.313,450.377,368.735,448.517,366.875z"/>
	</g>
</g>
<g>
	<g>
		<path d="M502.005,363.946h-15.246c-5.52,0-9.995,4.476-9.995,9.995c0,5.519,4.475,9.995,9.995,9.995h5.251v107.946H384.063
			V383.937h13.406c5.52,0,9.995-4.476,9.995-9.995c0-5.519-4.475-9.995-9.995-9.995h-23.401c-5.52,0-9.995,4.476-9.995,9.995
			v127.937c0,5.519,4.475,9.995,9.995,9.995h127.937c5.52,0,9.995-4.476,9.995-9.995V373.941
			C512,368.422,507.525,363.946,502.005,363.946z"/>
	</g>
</g>
<g>
	<g>
		<path d="M77.621,130.992c-1.859-1.86-4.438-2.929-7.066-2.929c-2.639,0-5.207,1.069-7.066,2.929
			c-1.859,1.859-2.929,4.438-2.929,7.066c0,2.629,1.069,5.207,2.929,7.066c1.859,1.86,4.438,2.93,7.066,2.93s5.207-1.069,7.066-2.93
			c1.859-1.858,2.929-4.437,2.929-7.066C80.55,135.43,79.481,132.851,77.621,130.992z"/>
	</g>
</g>
<g>
	<g>
		<path d="M137.932,0.127H9.995C4.475,0.127,0,4.603,0,10.122v127.937c0,5.519,4.475,9.995,9.995,9.995h15.246
			c5.52,0,9.995-4.476,9.995-9.995c0-5.519-4.475-9.995-9.995-9.995H19.99V20.117h107.946v107.946H114.53
			c-5.52,0-9.995,4.476-9.995,9.995c0,5.519,4.475,9.995,9.995,9.995h23.401c5.52,0,9.995-4.476,9.995-9.995V10.122
			C147.927,4.603,143.452,0.127,137.932,0.127z"/>
	</g>
</g>
<g>
</g>
<g>
</g>
<g>
</g>
<g>
</g>
<g>
</g>
<g>
</g>
<g>
</g>
<g>
</g>
<g>
</g>
<g>
</g>
<g>
</g>
<g>
</g>
<g>
</g>
<g>
</g>
<g>
</g>
</svg>
